<svg id="Layer_1" data-name="Layer 1" xmlns="http://www.w3.org/2000/svg" viewBox="0 0 667 189.37"><defs><style>.cls-1,.cls-2,.cls-3,.cls-4,.cls-5,.cls-7,.cls-8,.cls-9{isolation:isolate;}.cls-2,.cls-3{font-size:65px;font-family:Supra-XBoldExtended, Supra;font-weight:700;}.cls-11,.cls-2,.cls-3{fill:#f1a5bc;}.cls-2{letter-spacing:-0.01em;}.cls-4,.cls-5,.cls-7,.cls-8,.cls-9{font-size:70px;fill:none;stroke:#b15421;stroke-miterlimit:10;stroke-width:4px;font-family:Factoria-Black, Factoria;}.cls-4{letter-spacing:-0.05em;}.cls-5{letter-spacing:-0.02em;}.cls-6{letter-spacing:-0.01em;}.cls-8{letter-spacing:-0.02em;}.cls-9{letter-spacing:-0.09em;}.cls-10{fill:#b15421;}</style></defs><title>full_logo</title><g class="cls-1"><text class="cls-2" transform="translate(202 80.97)">C</text><text class="cls-3" transform="translate(252.44 80.97)">OLLE</text><text class="cls-2" transform="translate(441.78 80.97)">C</text><text class="cls-3" transform="translate(492.16 80.97)">TIVE</text></g><g class="cls-1"><text class="cls-4" transform="translate(207.27 151.1)">L</text><text class="cls-5" transform="translate(249.06 151.1)">u<tspan class="cls-6" x="44.38" y="0">c</tspan></text><text class="cls-7" transform="translate(330.96 151.1)">y &amp;</text><text class="cls-8" transform="translate(438.13 151.1)"> </text><text class="cls-9" transform="translate(454.65 151.1)">Y</text><text class="cls-7" transform="translate(500.43 151.1)">ak</text></g><path class="cls-10" d="M67.41,87c3,3.4,15.48,10.57,24.54,8.31,3-.38,5.11-5.87,0-7.93C79.55,86,71.52,80,72.69,64.38c0,0-.37-3.4-4.53-4.15C56.46,60.19,62.12,82.08,67.41,87Z" transform="translate(0 0)"/><path class="cls-10" d="M90.25,83.78c4.33-.78,8.87-1.32,11.13-7.36,1.14-4.91.38-13.21-3.77-15.85-3.89-1.38-6.42.37-6.42,4.15l.38,1.51L92.7,70c.42,2.27,0,3.57-1.51,3.78-1.83.78-4.53.75-5.66,0s-1.9-1.39-1.51-7.55c.61-4.38-1.14-6-4.72-5.47C75.42,61.54,75,66,75.52,71.33,75.71,77.18,79.08,84.44,90.25,83.78Z" transform="translate(0 0)"/><path class="cls-10" d="M91.57,111.91c-.11-9.55-1.34-16.2-8.68-13.59-3.09,1-2.44,5-1.14,9.43.84,3.07-2.8,3.49-7.92,3-2.14-.37-3.26-2.16-1.51-7.92,1.14-4.39-.78-6.2-4.35-6.61-9.24.19-8.68,20,3,23.78,1.38.68,1,1.7.19,4-1.26,4.31.38,8.68,6.42,7.92,3-1.2,5.39-3.44,4.15-11.7C82.89,117.57,91.57,119.08,91.57,111.91Z" transform="translate(0 0)"/><path class="cls-10" d="M112.9,83.78c1.38.68.94,1.7.19,4-1.27,4.31.37,8.68,6.41,7.92,3-1.2,5.4-3.44,4.16-11.7,1.13-2.64,9.81-1.13,9.81-8.3-.11-9.55-1.34-16.2-8.68-13.59-3.09,1-2.44,5-1.13,9.43.83,3.07-2.81,3.49-7.93,3-2.14-.37-3.25-2.16-1.51-7.92,1.14-4.39-.77-6.2-4.34-6.61C100.63,60.19,101.2,80,112.9,83.78Z" transform="translate(0 0)"/><path class="cls-10" d="M131.58,122.1l-3.39-4.91c-.76-.75.18-1.36,0-1.13l3-1.89c1.94-2.09,2.26-4.15.75-6.79-2.18-3-4.45-2.83-6.79,0-4.45,5.18-7.33,6.28-8.69,3.39-1-1.22-1-3.88.38-8.3.48-2.66-2.26-5.29-5.66-5.29-6.46-1.05-5.66,11.71-4.34,30,.94,6.6,10,6.22,10-.19.38-3.4,2.2-3.68,4.53-1.51,4.53,5.66,6.15,7.85,9.06,5.66C132.92,129.4,135.24,127.55,131.58,122.1Z" transform="translate(0 0)"/><path class="cls-10" d="M110.82,91.9a2.33,2.33,0,0,0-2.62-2,2.24,2.24,0,0,0-1.15.49c-1.49,1.15-3.78,2.26-4.53,0-.48-2.23.89-2.76,3.77-1.89,2.08.6,3.38.37,4-.6a3,3,0,0,0,.17-1.29c-.37-3-3.48-4.15-6.41-4.15a7.18,7.18,0,0,0-.54,14.35h.54C107.36,96.81,110.82,95.3,110.82,91.9Z" transform="translate(0 0)"/><circle class="cls-10" cx="76.84" cy="105.11" r="1.89"/><path class="cls-10" d="M98.34,118.88a7.17,7.17,0,1,0,0,11.68,3,3,0,0,0,1.86,1.35c2.51-.12,4.47-1.43,2.64-10.94C101.7,115.69,99.81,116.62,98.34,118.88Zm-3.75,7.37a1.51,1.51,0,1,1,1.51-1.51h0a1.5,1.5,0,0,1-1.49,1.51Z" transform="translate(0 0)"/><circle class="cls-10" cx="118.75" cy="68.87" r="1.89"/><path class="cls-10" d="M98.74,102.47c-3.4-.38-3,2.64-2.26,4.53-3.3,3.31-.76,6.42,3.77,4.53,1.59,1,2.19.88,1.13-1.13,1.51-1.14,2.65-2.27.76-2.27-1.25.05-2.31-.06-2.27-1.13C101.76,105.49,101.63,102.78,98.74,102.47ZM98,110.12a.37.37,0,0,1-.52,0h0a.38.38,0,0,1,.59-.48.38.38,0,0,1-.07.52h0Zm.76-4.9a.35.35,0,1,1,.06-.53A.38.38,0,0,1,98.79,105.22Z" transform="translate(0 0)"/><path class="cls-11" d="M173.64,133.76A85.35,85.35,0,0,1,97.87,179c-47,0-85.14-37.18-85.14-83S50.85,13,97.87,13A85.53,85.53,0,0,1,171.1,53.58l10-6.3A97.46,97.46,0,0,0,97.1,0C43.46,0,0,42.39,0,94.68s43.46,94.69,97.07,94.69a98.58,98.58,0,0,0,45.68-11.13,96.35,96.35,0,0,0,40.36-39.74Z" transform="translate(0 0)"/><path d="M152,124.38a60.58,60.58,0,0,1-54,33.43c-33.5,0-60.66-27.5-60.66-61.41S64.47,35,98,35a60.49,60.49,0,0,1,52.19,30.1l7.11-4.67a69,69,0,0,0-59.86-35c-38.21,0-69.18,31.35-69.18,70s31,70,69.18,70A68.14,68.14,0,0,0,130,157.27a70,70,0,0,0,28.76-29.39Z" transform="translate(0 0)"/><polygon points="639.25 99.32 647.82 116.7 667 119.48 653.12 133.01 656.4 152.11 639.25 143.09 622.1 152.11 625.37 133.01 611.5 119.48 630.67 116.7 639.25 99.32"/></svg>